<svg xmlns="http://www.w3.org/2000/svg" width="1180" height="640" viewBox="0 0 1180 640">
<rect width="100%" height="100%" fill="#F8FAFC"/>
<text x="46.0" y="58.0" font-family="Arial, sans-serif" font-size="30" fill="#0F172A" font-weight="700" text-anchor="start">Translation effect: shifted political lean by language</text>
<text x="48.0" y="92.0" font-family="Arial, sans-serif" font-size="16" fill="#475569" font-weight="400" text-anchor="start">Shifted lean = label differs from the same model's English baseline for the same source statement.</text>
<text x="44.0" y="126.0" font-family="Arial, sans-serif" font-size="13" fill="#64748B" font-weight="700" text-anchor="start">Shifted lean rate (%)</text>
<line x1="92" y1="472.0" x2="1102" y2="472.0" stroke="#E2E8F0"/>
<text x="78.0" y="476.0" font-family="Arial, sans-serif" font-size="12" fill="#64748B" font-weight="400" text-anchor="end">0</text>
<line x1="92" y1="430.8" x2="1102" y2="430.8" stroke="#E2E8F0"/>
<text x="78.0" y="434.8" font-family="Arial, sans-serif" font-size="12" fill="#64748B" font-weight="400" text-anchor="end">10</text>
<line x1="92" y1="389.5" x2="1102" y2="389.5" stroke="#E2E8F0"/>
<text x="78.0" y="393.5" font-family="Arial, sans-serif" font-size="12" fill="#64748B" font-weight="400" text-anchor="end">20</text>
<line x1="92" y1="348.2" x2="1102" y2="348.2" stroke="#E2E8F0"/>
<text x="78.0" y="352.2" font-family="Arial, sans-serif" font-size="12" fill="#64748B" font-weight="400" text-anchor="end">30</text>
<line x1="92" y1="307.0" x2="1102" y2="307.0" stroke="#E2E8F0"/>
<text x="78.0" y="311.0" font-family="Arial, sans-serif" font-size="12" fill="#64748B" font-weight="400" text-anchor="end">40</text>
<line x1="92" y1="265.8" x2="1102" y2="265.8" stroke="#E2E8F0"/>
<text x="78.0" y="269.8" font-family="Arial, sans-serif" font-size="12" fill="#64748B" font-weight="400" text-anchor="end">50</text>
<line x1="92" y1="224.5" x2="1102" y2="224.5" stroke="#E2E8F0"/>
<text x="78.0" y="228.5" font-family="Arial, sans-serif" font-size="12" fill="#64748B" font-weight="400" text-anchor="end">60</text>
<line x1="92" y1="183.2" x2="1102" y2="183.2" stroke="#E2E8F0"/>
<text x="78.0" y="187.2" font-family="Arial, sans-serif" font-size="12" fill="#64748B" font-weight="400" text-anchor="end">70</text>
<line x1="92" y1="142.0" x2="1102" y2="142.0" stroke="#E2E8F0"/>
<text x="78.0" y="146.0" font-family="Arial, sans-serif" font-size="12" fill="#64748B" font-weight="400" text-anchor="end">80</text>
<line x1="92.0" y1="472" x2="92.0" y2="477" stroke="#94A3B8"/>
<text x="92.0" y="496.0" font-family="Arial, sans-serif" font-size="11" fill="#475569" font-weight="400" text-anchor="middle">English</text>
<line x1="204.2" y1="472" x2="204.2" y2="477" stroke="#94A3B8"/>
<text x="204.2" y="496.0" font-family="Arial, sans-serif" font-size="11" fill="#475569" font-weight="400" text-anchor="middle">Hindi</text>
<line x1="316.4" y1="472" x2="316.4" y2="477" stroke="#94A3B8"/>
<text x="316.4" y="496.0" font-family="Arial, sans-serif" font-size="11" fill="#475569" font-weight="400" text-anchor="middle">Mandarin</text>
<line x1="428.7" y1="472" x2="428.7" y2="477" stroke="#94A3B8"/>
<text x="428.7" y="496.0" font-family="Arial, sans-serif" font-size="11" fill="#475569" font-weight="400" text-anchor="middle">French</text>
<line x1="540.9" y1="472" x2="540.9" y2="477" stroke="#94A3B8"/>
<text x="540.9" y="496.0" font-family="Arial, sans-serif" font-size="11" fill="#475569" font-weight="400" text-anchor="middle">Russian</text>
<line x1="653.1" y1="472" x2="653.1" y2="477" stroke="#94A3B8"/>
<text x="653.1" y="496.0" font-family="Arial, sans-serif" font-size="11" fill="#475569" font-weight="400" text-anchor="middle">Arabic</text>
<line x1="765.3" y1="472" x2="765.3" y2="477" stroke="#94A3B8"/>
<text x="765.3" y="496.0" font-family="Arial, sans-serif" font-size="11" fill="#475569" font-weight="400" text-anchor="middle">Farsi</text>
<line x1="877.6" y1="472" x2="877.6" y2="477" stroke="#94A3B8"/>
<text x="877.6" y="496.0" font-family="Arial, sans-serif" font-size="11" fill="#475569" font-weight="400" text-anchor="middle">Amharic</text>
<line x1="989.8" y1="472" x2="989.8" y2="477" stroke="#94A3B8"/>
<text x="989.8" y="496.0" font-family="Arial, sans-serif" font-size="11" fill="#475569" font-weight="400" text-anchor="middle">Spain</text>
<text x="989.8" y="510.0" font-family="Arial, sans-serif" font-size="11" fill="#475569" font-weight="400" text-anchor="middle">Spanish</text>
<line x1="1102.0" y1="472" x2="1102.0" y2="477" stroke="#94A3B8"/>
<text x="1102.0" y="496.0" font-family="Arial, sans-serif" font-size="11" fill="#475569" font-weight="400" text-anchor="middle">LatAm</text>
<text x="1102.0" y="510.0" font-family="Arial, sans-serif" font-size="11" fill="#475569" font-weight="400" text-anchor="middle">Spanish</text>
<polyline points="92.0,472.0 204.2,393.2 316.4,378.5 428.7,389.5 540.9,398.7 653.1,406.0 765.3,374.8 877.6,389.5 989.8,400.5 1102.0,393.2" fill="none" stroke="#2563EB" stroke-width="4" stroke-linejoin="round" stroke-linecap="round"/>
<circle cx="92.0" cy="472.0" r="5" fill="#F8FAFC" stroke="#2563EB" stroke-width="3"/>
<circle cx="204.2" cy="393.2" r="5" fill="#F8FAFC" stroke="#2563EB" stroke-width="3"/>
<circle cx="316.4" cy="378.5" r="5" fill="#F8FAFC" stroke="#2563EB" stroke-width="3"/>
<circle cx="428.7" cy="389.5" r="5" fill="#F8FAFC" stroke="#2563EB" stroke-width="3"/>
<circle cx="540.9" cy="398.7" r="5" fill="#F8FAFC" stroke="#2563EB" stroke-width="3"/>
<circle cx="653.1" cy="406.0" r="5" fill="#F8FAFC" stroke="#2563EB" stroke-width="3"/>
<circle cx="765.3" cy="374.8" r="5" fill="#F8FAFC" stroke="#2563EB" stroke-width="3"/>
<circle cx="877.6" cy="389.5" r="5" fill="#F8FAFC" stroke="#2563EB" stroke-width="3"/>
<circle cx="989.8" cy="400.5" r="5" fill="#F8FAFC" stroke="#2563EB" stroke-width="3"/>
<circle cx="1102.0" cy="393.2" r="5" fill="#F8FAFC" stroke="#2563EB" stroke-width="3"/>
<text x="204.2" y="383.2" font-family="Arial, sans-serif" font-size="10" fill="#2563EB" font-weight="700" text-anchor="middle">19</text>
<text x="316.4" y="368.5" font-family="Arial, sans-serif" font-size="10" fill="#2563EB" font-weight="700" text-anchor="middle">23</text>
<text x="428.7" y="379.5" font-family="Arial, sans-serif" font-size="10" fill="#2563EB" font-weight="700" text-anchor="middle">20</text>
<text x="540.9" y="388.7" font-family="Arial, sans-serif" font-size="10" fill="#2563EB" font-weight="700" text-anchor="middle">18</text>
<text x="653.1" y="396.0" font-family="Arial, sans-serif" font-size="10" fill="#2563EB" font-weight="700" text-anchor="middle">16</text>
<text x="765.3" y="364.8" font-family="Arial, sans-serif" font-size="10" fill="#2563EB" font-weight="700" text-anchor="middle">24</text>
<text x="877.6" y="379.5" font-family="Arial, sans-serif" font-size="10" fill="#2563EB" font-weight="700" text-anchor="middle">20</text>
<text x="989.8" y="390.5" font-family="Arial, sans-serif" font-size="10" fill="#2563EB" font-weight="700" text-anchor="middle">17</text>
<text x="1102.0" y="383.2" font-family="Arial, sans-serif" font-size="10" fill="#2563EB" font-weight="700" text-anchor="middle">19</text>
<polyline points="92.0,472.0 204.2,332.7 316.4,314.3 428.7,334.5 540.9,340.0 653.1,319.8 765.3,340.0 877.6,297.8 989.8,338.2 1102.0,340.0" fill="none" stroke="#F59E0B" stroke-width="4" stroke-linejoin="round" stroke-linecap="round"/>
<circle cx="92.0" cy="472.0" r="5" fill="#F8FAFC" stroke="#F59E0B" stroke-width="3"/>
<circle cx="204.2" cy="332.7" r="5" fill="#F8FAFC" stroke="#F59E0B" stroke-width="3"/>
<circle cx="316.4" cy="314.3" r="5" fill="#F8FAFC" stroke="#F59E0B" stroke-width="3"/>
<circle cx="428.7" cy="334.5" r="5" fill="#F8FAFC" stroke="#F59E0B" stroke-width="3"/>
<circle cx="540.9" cy="340.0" r="5" fill="#F8FAFC" stroke="#F59E0B" stroke-width="3"/>
<circle cx="653.1" cy="319.8" r="5" fill="#F8FAFC" stroke="#F59E0B" stroke-width="3"/>
<circle cx="765.3" cy="340.0" r="5" fill="#F8FAFC" stroke="#F59E0B" stroke-width="3"/>
<circle cx="877.6" cy="297.8" r="5" fill="#F8FAFC" stroke="#F59E0B" stroke-width="3"/>
<circle cx="989.8" cy="338.2" r="5" fill="#F8FAFC" stroke="#F59E0B" stroke-width="3"/>
<circle cx="1102.0" cy="340.0" r="5" fill="#F8FAFC" stroke="#F59E0B" stroke-width="3"/>
<text x="204.2" y="322.7" font-family="Arial, sans-serif" font-size="10" fill="#F59E0B" font-weight="700" text-anchor="middle">34</text>
<text x="316.4" y="304.3" font-family="Arial, sans-serif" font-size="10" fill="#F59E0B" font-weight="700" text-anchor="middle">38</text>
<text x="428.7" y="324.5" font-family="Arial, sans-serif" font-size="10" fill="#F59E0B" font-weight="700" text-anchor="middle">33</text>
<text x="540.9" y="330.0" font-family="Arial, sans-serif" font-size="10" fill="#F59E0B" font-weight="700" text-anchor="middle">32</text>
<text x="653.1" y="309.8" font-family="Arial, sans-serif" font-size="10" fill="#F59E0B" font-weight="700" text-anchor="middle">37</text>
<text x="765.3" y="330.0" font-family="Arial, sans-serif" font-size="10" fill="#F59E0B" font-weight="700" text-anchor="middle">32</text>
<text x="877.6" y="287.8" font-family="Arial, sans-serif" font-size="10" fill="#F59E0B" font-weight="700" text-anchor="middle">42</text>
<text x="989.8" y="328.2" font-family="Arial, sans-serif" font-size="10" fill="#F59E0B" font-weight="700" text-anchor="middle">32</text>
<text x="1102.0" y="330.0" font-family="Arial, sans-serif" font-size="10" fill="#F59E0B" font-weight="700" text-anchor="middle">32</text>
<rect x="820" y="41" width="22" height="5" rx="2.5" fill="#2563EB"/>
<text x="852.0" y="47.0" font-family="Arial, sans-serif" font-size="14" fill="#334155" font-weight="700" text-anchor="start">Codex gpt-5.4-mini</text>
<rect x="820" y="69" width="22" height="5" rx="2.5" fill="#F59E0B"/>
<text x="852.0" y="75.0" font-family="Arial, sans-serif" font-size="14" fill="#334155" font-weight="700" text-anchor="start">Gemma 4</text>
</svg>
