<svg xmlns="http://www.w3.org/2000/svg" width="580" height="530" viewBox="0 0 580 530">
<style>text{font-family:Arial,Helvetica,sans-serif;} .small{font-size:11px;} .label{font-size:12px;} .title{font-size:18px;font-weight:bold;} .axis{stroke:#333;stroke-width:1;} .grid{stroke:#ddd;stroke-width:1;}</style>
<text x="290.0" y="30" class="title" text-anchor="middle" fill="#111">Final Statements: Codex Political Lean Distribution by Language (%)</text>
<text x="170" y="81.0" class="small" text-anchor="end" fill="#111">English</text>
<rect x="180" y="60" width="74" height="34" fill="#e1ebeb" stroke="#fff"/>
<text x="217.0" y="81.0" class="small" text-anchor="middle" fill="#111">6%</text>
<rect x="254" y="60" width="74" height="34" fill="#c5d8d8" stroke="#fff"/>
<text x="291.0" y="81.0" class="small" text-anchor="middle" fill="#111">14%</text>
<rect x="328" y="60" width="74" height="34" fill="#8db1b3" stroke="#fff"/>
<text x="365.0" y="81.0" class="small" text-anchor="middle" fill="#111">31%</text>
<rect x="402" y="60" width="74" height="34" fill="#88adaf" stroke="#fff"/>
<text x="439.0" y="81.0" class="small" text-anchor="middle" fill="#111">33%</text>
<rect x="476" y="60" width="74" height="34" fill="#bfd4d4" stroke="#fff"/>
<text x="513.0" y="81.0" class="small" text-anchor="middle" fill="#111">16%</text>
<text x="170" y="115.0" class="small" text-anchor="end" fill="#111">Hindi</text>
<rect x="180" y="94" width="74" height="34" fill="#e3eded" stroke="#fff"/>
<text x="217.0" y="115.0" class="small" text-anchor="middle" fill="#111">5%</text>
<rect x="254" y="94" width="74" height="34" fill="#bcd2d2" stroke="#fff"/>
<text x="291.0" y="115.0" class="small" text-anchor="middle" fill="#111">17%</text>
<rect x="328" y="94" width="74" height="34" fill="#90b3b5" stroke="#fff"/>
<text x="365.0" y="115.0" class="small" text-anchor="middle" fill="#111">30%</text>
<rect x="402" y="94" width="74" height="34" fill="#8aafb1" stroke="#fff"/>
<text x="439.0" y="115.0" class="small" text-anchor="middle" fill="#111">32%</text>
<rect x="476" y="94" width="74" height="34" fill="#bfd4d4" stroke="#fff"/>
<text x="513.0" y="115.0" class="small" text-anchor="middle" fill="#111">16%</text>
<text x="170" y="149.0" class="small" text-anchor="end" fill="#111">Simplified Mandarin</text>
<rect x="180" y="128" width="74" height="34" fill="#dce8e8" stroke="#fff"/>
<text x="217.0" y="149.0" class="small" text-anchor="middle" fill="#111">7%</text>
<rect x="254" y="128" width="74" height="34" fill="#bbd1d1" stroke="#fff"/>
<text x="291.0" y="149.0" class="small" text-anchor="middle" fill="#111">17%</text>
<rect x="328" y="128" width="74" height="34" fill="#8aafb1" stroke="#fff"/>
<text x="365.0" y="149.0" class="small" text-anchor="middle" fill="#111">32%</text>
<rect x="402" y="128" width="74" height="34" fill="#95b6b7" stroke="#fff"/>
<text x="439.0" y="149.0" class="small" text-anchor="middle" fill="#111">29%</text>
<rect x="476" y="128" width="74" height="34" fill="#c3d7d7" stroke="#fff"/>
<text x="513.0" y="149.0" class="small" text-anchor="middle" fill="#111">15%</text>
<text x="170" y="183.0" class="small" text-anchor="end" fill="#111">French</text>
<rect x="180" y="162" width="74" height="34" fill="#dce8e8" stroke="#fff"/>
<text x="217.0" y="183.0" class="small" text-anchor="middle" fill="#111">7%</text>
<rect x="254" y="162" width="74" height="34" fill="#bbd1d1" stroke="#fff"/>
<text x="291.0" y="183.0" class="small" text-anchor="middle" fill="#111">17%</text>
<rect x="328" y="162" width="74" height="34" fill="#92b4b5" stroke="#fff"/>
<text x="365.0" y="183.0" class="small" text-anchor="middle" fill="#111">30%</text>
<rect x="402" y="162" width="74" height="34" fill="#96b7b8" stroke="#fff"/>
<text x="439.0" y="183.0" class="small" text-anchor="middle" fill="#111">28%</text>
<rect x="476" y="162" width="74" height="34" fill="#bbd1d1" stroke="#fff"/>
<text x="513.0" y="183.0" class="small" text-anchor="middle" fill="#111">17%</text>
<text x="170" y="217.0" class="small" text-anchor="end" fill="#111">Russian</text>
<rect x="180" y="196" width="74" height="34" fill="#dfeaea" stroke="#fff"/>
<text x="217.0" y="217.0" class="small" text-anchor="middle" fill="#111">6%</text>
<rect x="254" y="196" width="74" height="34" fill="#bcd2d2" stroke="#fff"/>
<text x="291.0" y="217.0" class="small" text-anchor="middle" fill="#111">17%</text>
<rect x="328" y="196" width="74" height="34" fill="#8db1b3" stroke="#fff"/>
<text x="365.0" y="217.0" class="small" text-anchor="middle" fill="#111">31%</text>
<rect x="402" y="196" width="74" height="34" fill="#8cb0b2" stroke="#fff"/>
<text x="439.0" y="217.0" class="small" text-anchor="middle" fill="#111">32%</text>
<rect x="476" y="196" width="74" height="34" fill="#c5d8d8" stroke="#fff"/>
<text x="513.0" y="217.0" class="small" text-anchor="middle" fill="#111">14%</text>
<text x="170" y="251.0" class="small" text-anchor="end" fill="#111">Arabic</text>
<rect x="180" y="230" width="74" height="34" fill="#e5eeee" stroke="#fff"/>
<text x="217.0" y="251.0" class="small" text-anchor="middle" fill="#111">4%</text>
<rect x="254" y="230" width="74" height="34" fill="#bfd4d4" stroke="#fff"/>
<text x="291.0" y="251.0" class="small" text-anchor="middle" fill="#111">16%</text>
<rect x="328" y="230" width="74" height="34" fill="#8cb0b2" stroke="#fff"/>
<text x="365.0" y="251.0" class="small" text-anchor="middle" fill="#111">32%</text>
<rect x="402" y="230" width="74" height="34" fill="#90b3b5" stroke="#fff"/>
<text x="439.0" y="251.0" class="small" text-anchor="middle" fill="#111">30%</text>
<rect x="476" y="230" width="74" height="34" fill="#b9d0d0" stroke="#fff"/>
<text x="513.0" y="251.0" class="small" text-anchor="middle" fill="#111">18%</text>
<text x="170" y="285.0" class="small" text-anchor="end" fill="#111">Farsi</text>
<rect x="180" y="264" width="74" height="34" fill="#d2e1e1" stroke="#fff"/>
<text x="217.0" y="285.0" class="small" text-anchor="middle" fill="#111">10%</text>
<rect x="254" y="264" width="74" height="34" fill="#c2d6d6" stroke="#fff"/>
<text x="291.0" y="285.0" class="small" text-anchor="middle" fill="#111">15%</text>
<rect x="328" y="264" width="74" height="34" fill="#8fb2b4" stroke="#fff"/>
<text x="365.0" y="285.0" class="small" text-anchor="middle" fill="#111">31%</text>
<rect x="402" y="264" width="74" height="34" fill="#9dbcbd" stroke="#fff"/>
<text x="439.0" y="285.0" class="small" text-anchor="middle" fill="#111">26%</text>
<rect x="476" y="264" width="74" height="34" fill="#b9d0d0" stroke="#fff"/>
<text x="513.0" y="285.0" class="small" text-anchor="middle" fill="#111">18%</text>
<text x="170" y="319.0" class="small" text-anchor="end" fill="#111">Amharic</text>
<rect x="180" y="298" width="74" height="34" fill="#ecf3f3" stroke="#fff"/>
<text x="217.0" y="319.0" class="small" text-anchor="middle" fill="#111">2%</text>
<rect x="254" y="298" width="74" height="34" fill="#c5d8d8" stroke="#fff"/>
<text x="291.0" y="319.0" class="small" text-anchor="middle" fill="#111">14%</text>
<rect x="328" y="298" width="74" height="34" fill="#83aaac" stroke="#fff"/>
<text x="365.0" y="319.0" class="small" text-anchor="middle" fill="#111">34%</text>
<rect x="402" y="298" width="74" height="34" fill="#80a8aa" stroke="#fff"/>
<text x="439.0" y="319.0" class="small" text-anchor="middle" fill="#111">35%</text>
<rect x="476" y="298" width="74" height="34" fill="#c5d8d8" stroke="#fff"/>
<text x="513.0" y="319.0" class="small" text-anchor="middle" fill="#111">14%</text>
<text x="170" y="353.0" class="small" text-anchor="end" fill="#111">Spain Spanish</text>
<rect x="180" y="332" width="74" height="34" fill="#dfeaea" stroke="#fff"/>
<text x="217.0" y="353.0" class="small" text-anchor="middle" fill="#111">6%</text>
<rect x="254" y="332" width="74" height="34" fill="#bcd2d2" stroke="#fff"/>
<text x="291.0" y="353.0" class="small" text-anchor="middle" fill="#111">17%</text>
<rect x="328" y="332" width="74" height="34" fill="#90b3b5" stroke="#fff"/>
<text x="365.0" y="353.0" class="small" text-anchor="middle" fill="#111">30%</text>
<rect x="402" y="332" width="74" height="34" fill="#8fb2b4" stroke="#fff"/>
<text x="439.0" y="353.0" class="small" text-anchor="middle" fill="#111">31%</text>
<rect x="476" y="332" width="74" height="34" fill="#bfd4d4" stroke="#fff"/>
<text x="513.0" y="353.0" class="small" text-anchor="middle" fill="#111">16%</text>
<text x="170" y="387.0" class="small" text-anchor="end" fill="#111">Latin American Spanish</text>
<rect x="180" y="366" width="74" height="34" fill="#e3eded" stroke="#fff"/>
<text x="217.0" y="387.0" class="small" text-anchor="middle" fill="#111">5%</text>
<rect x="254" y="366" width="74" height="34" fill="#c2d6d6" stroke="#fff"/>
<text x="291.0" y="387.0" class="small" text-anchor="middle" fill="#111">15%</text>
<rect x="328" y="366" width="74" height="34" fill="#90b3b5" stroke="#fff"/>
<text x="365.0" y="387.0" class="small" text-anchor="middle" fill="#111">30%</text>
<rect x="402" y="366" width="74" height="34" fill="#8db1b3" stroke="#fff"/>
<text x="439.0" y="387.0" class="small" text-anchor="middle" fill="#111">31%</text>
<rect x="476" y="366" width="74" height="34" fill="#b6cece" stroke="#fff"/>
<text x="513.0" y="387.0" class="small" text-anchor="middle" fill="#111">19%</text>
<text x="217.0" y="418" class="small" text-anchor="middle" fill="#111" transform="rotate(35 217.0 418)">Auth-Left</text>
<text x="291.0" y="418" class="small" text-anchor="middle" fill="#111" transform="rotate(35 291.0 418)">Auth-Right</text>
<text x="365.0" y="418" class="small" text-anchor="middle" fill="#111" transform="rotate(35 365.0 418)">Centrist</text>
<text x="439.0" y="418" class="small" text-anchor="middle" fill="#111" transform="rotate(35 439.0 418)">Lib-Left</text>
<text x="513.0" y="418" class="small" text-anchor="middle" fill="#111" transform="rotate(35 513.0 418)">Lib-Right</text>
</svg>
