<svg xmlns="http://www.w3.org/2000/svg" width="1200" height="560" viewBox="0 0 1200 560">
<style>text{font-family:Arial,Helvetica,sans-serif;} .small{font-size:11px;} .label{font-size:12px;} .title{font-size:18px;font-weight:bold;} .axis{stroke:#333;stroke-width:1;} .grid{stroke:#ddd;stroke-width:1;}</style>
<text x="600.0" y="30" class="title" text-anchor="middle" fill="#111">Perturbations: Reference Match and Framing-Induced Lean Shift</text>
<line x1="80" y1="400" x2="1170" y2="400" class="axis"/>
<line x1="80" y1="60" x2="80" y2="400" class="axis"/>
<line x1="80" y1="400.0" x2="1170" y2="400.0" class="grid"/>
<text x="72" y="404.0" class="small" text-anchor="end" fill="#111">0</text>
<line x1="80" y1="315.0" x2="1170" y2="315.0" class="grid"/>
<text x="72" y="319.0" class="small" text-anchor="end" fill="#111">25</text>
<line x1="80" y1="230.0" x2="1170" y2="230.0" class="grid"/>
<text x="72" y="234.0" class="small" text-anchor="end" fill="#111">50</text>
<line x1="80" y1="145.0" x2="1170" y2="145.0" class="grid"/>
<text x="72" y="149.0" class="small" text-anchor="end" fill="#111">75</text>
<line x1="80" y1="60.0" x2="1170" y2="60.0" class="grid"/>
<text x="72" y="64.0" class="small" text-anchor="end" fill="#111">100</text>
<rect x="90.0" y="184.9" width="31.6" height="215.1" fill="#2f6f73"/>
<rect x="125.6" y="343.4" width="31.6" height="56.6" fill="#d1495b"/>
<text x="123.57142857142857" y="418" class="small" text-anchor="middle" fill="#111" transform="rotate(38 123.57142857142857 418)">Active Voice</text>
<rect x="167.1" y="185.8" width="31.6" height="214.2" fill="#2f6f73"/>
<rect x="202.7" y="329.1" width="31.6" height="70.9" fill="#d1495b"/>
<text x="200.71428571428572" y="418" class="small" text-anchor="middle" fill="#111" transform="rotate(38 200.71428571428572 418)">Passive Voice</text>
<rect x="244.3" y="264.0" width="31.6" height="136.0" fill="#2f6f73"/>
<rect x="279.9" y="263.1" width="31.6" height="136.8" fill="#d1495b"/>
<text x="277.85714285714283" y="418" class="small" text-anchor="middle" fill="#111" transform="rotate(38 277.85714285714283 418)">Open Ended</text>
<rect x="321.4" y="204.6" width="31.6" height="195.4" fill="#2f6f73"/>
<rect x="357.0" y="320.1" width="31.6" height="79.9" fill="#d1495b"/>
<text x="355.0" y="418" class="small" text-anchor="middle" fill="#111" transform="rotate(38 355.0 418)">Yes-No Forced Choice</text>
<rect x="398.6" y="193.5" width="31.6" height="206.5" fill="#2f6f73"/>
<rect x="434.1" y="314.7" width="31.6" height="85.3" fill="#d1495b"/>
<text x="432.1428571428571" y="418" class="small" text-anchor="middle" fill="#111" transform="rotate(38 432.1428571428571 418)">Presupposition Loading</text>
<rect x="475.7" y="178.0" width="31.6" height="222.0" fill="#2f6f73"/>
<rect x="511.3" y="344.8" width="31.6" height="55.2" fill="#d1495b"/>
<text x="509.2857142857142" y="418" class="small" text-anchor="middle" fill="#111" transform="rotate(38 509.2857142857142 418)">Embedded</text>
<rect x="552.9" y="174.7" width="31.6" height="225.3" fill="#2f6f73"/>
<rect x="588.4" y="342.9" width="31.6" height="57.1" fill="#d1495b"/>
<text x="586.4285714285714" y="418" class="small" text-anchor="middle" fill="#111" transform="rotate(38 586.4285714285714 418)">Direct</text>
<rect x="630.0" y="173.2" width="31.6" height="226.8" fill="#2f6f73"/>
<rect x="665.6" y="335.9" width="31.6" height="64.1" fill="#d1495b"/>
<text x="663.5714285714286" y="418" class="small" text-anchor="middle" fill="#111" transform="rotate(38 663.5714285714286 418)">Gain Framing</text>
<rect x="707.1" y="216.3" width="31.6" height="183.7" fill="#2f6f73"/>
<rect x="742.7" y="286.5" width="31.6" height="113.5" fill="#d1495b"/>
<text x="740.7142857142857" y="418" class="small" text-anchor="middle" fill="#111" transform="rotate(38 740.7142857142857 418)">Loss Framing</text>
<rect x="784.3" y="211.6" width="31.6" height="188.4" fill="#2f6f73"/>
<rect x="819.9" y="311.2" width="31.6" height="88.8" fill="#d1495b"/>
<text x="817.8571428571428" y="418" class="small" text-anchor="middle" fill="#111" transform="rotate(38 817.8571428571428 418)">Identity Change</text>
<rect x="861.4" y="196.8" width="31.6" height="203.2" fill="#2f6f73"/>
<rect x="897.0" y="325.3" width="31.6" height="74.7" fill="#d1495b"/>
<text x="894.9999999999999" y="418" class="small" text-anchor="middle" fill="#111" transform="rotate(38 894.9999999999999 418)">Formal</text>
<rect x="938.6" y="195.7" width="31.6" height="204.3" fill="#2f6f73"/>
<rect x="974.1" y="307.8" width="31.6" height="92.2" fill="#d1495b"/>
<text x="972.1428571428571" y="418" class="small" text-anchor="middle" fill="#111" transform="rotate(38 972.1428571428571 418)">Colloquial</text>
<rect x="1015.7" y="226.2" width="31.6" height="173.8" fill="#2f6f73"/>
<rect x="1051.3" y="299.4" width="31.6" height="100.6" fill="#d1495b"/>
<text x="1049.2857142857142" y="418" class="small" text-anchor="middle" fill="#111" transform="rotate(38 1049.2857142857142 418)">Hedged</text>
<rect x="1092.9" y="167.4" width="31.6" height="232.6" fill="#2f6f73"/>
<rect x="1128.4" y="339.5" width="31.6" height="60.5" fill="#d1495b"/>
<text x="1126.4285714285713" y="418" class="small" text-anchor="middle" fill="#111" transform="rotate(38 1126.4285714285713 418)">Assertive</text>
<rect x="90" y="70" width="14" height="14" fill="#2f6f73"/>
<text x="110" y="82" class="small" text-anchor="start" fill="#111">Reference match (%)</text>
<rect x="90" y="95" width="14" height="14" fill="#d1495b"/>
<text x="110" y="107" class="small" text-anchor="start" fill="#111">Deviation from row majority (%)</text>
</svg>
