<svg xmlns="http://www.w3.org/2000/svg" width="1120" height="620" viewBox="0 0 1120 620">
<rect width="100%" height="100%" fill="#F8FAFC"/>
<text x="52" y="62" font-family="Arial, sans-serif" font-size="30" fill="#0F172A" font-weight="700">Model comparison: political-lean stability and agreement</text>
<text x="54" y="98" font-family="Arial, sans-serif" font-size="16" fill="#475569" font-weight="400">Lower stability/agreement means more recoding of the same political content.</text>
<line x1="120.0" y1="150" x2="120.0" y2="500" stroke="#E2E8F0"/>
<text x="112.0" y="534" font-family="Arial" font-size="13" fill="#64748B">0</text>
<line x1="300.0" y1="150" x2="300.0" y2="500" stroke="#E2E8F0"/>
<text x="292.0" y="534" font-family="Arial" font-size="13" fill="#64748B">20</text>
<line x1="480.0" y1="150" x2="480.0" y2="500" stroke="#E2E8F0"/>
<text x="472.0" y="534" font-family="Arial" font-size="13" fill="#64748B">40</text>
<line x1="660.0" y1="150" x2="660.0" y2="500" stroke="#E2E8F0"/>
<text x="652.0" y="534" font-family="Arial" font-size="13" fill="#64748B">60</text>
<line x1="840.0" y1="150" x2="840.0" y2="500" stroke="#E2E8F0"/>
<text x="832.0" y="534" font-family="Arial" font-size="13" fill="#64748B">80</text>
<line x1="1020.0" y1="150" x2="1020.0" y2="500" stroke="#E2E8F0"/>
<text x="1012.0" y="534" font-family="Arial" font-size="13" fill="#64748B">100</text>
<text x="54" y="184" font-family="Arial, sans-serif" font-size="14" fill="#334155" font-weight="700">Cross-language stability</text>
<rect x="120" y="164" width="484.0" height="28" rx="5" fill="#2563EB"/>
<text x="612.0" y="183" font-family="Arial" font-size="13" fill="#334155" font-weight="700">53.8%</text>
<rect x="120" y="198" width="228.0" height="28" rx="5" fill="#F59E0B"/>
<text x="356.0" y="217" font-family="Arial" font-size="13" fill="#334155" font-weight="700">25.3%</text>
<text x="54" y="258" font-family="Arial, sans-serif" font-size="14" fill="#334155" font-weight="700">Perturbation stability</text>
<rect x="120" y="238" width="122.2" height="28" rx="5" fill="#2563EB"/>
<text x="250.2" y="257" font-family="Arial" font-size="13" fill="#334155" font-weight="700">13.6%</text>
<rect x="120" y="272" width="56.4" height="28" rx="5" fill="#F59E0B"/>
<text x="184.4" y="291" font-family="Arial" font-size="13" fill="#334155" font-weight="700">6.3%</text>
<text x="54" y="332" font-family="Arial, sans-serif" font-size="14" fill="#334155" font-weight="700">Final model agreement</text>
<rect x="120" y="312" width="581.6" height="28" rx="5" fill="#2563EB"/>
<text x="709.6" y="331" font-family="Arial" font-size="13" fill="#334155" font-weight="700">64.6%</text>
<rect x="120" y="346" width="581.6" height="28" rx="5" fill="#F59E0B"/>
<text x="709.6" y="365" font-family="Arial" font-size="13" fill="#334155" font-weight="700">64.6%</text>
<text x="54" y="406" font-family="Arial, sans-serif" font-size="14" fill="#334155" font-weight="700">Perturbation model agreement</text>
<rect x="120" y="386" width="535.6" height="28" rx="5" fill="#2563EB"/>
<text x="663.6" y="405" font-family="Arial" font-size="13" fill="#334155" font-weight="700">59.5%</text>
<rect x="120" y="420" width="535.6" height="28" rx="5" fill="#F59E0B"/>
<text x="663.6" y="439" font-family="Arial" font-size="13" fill="#334155" font-weight="700">59.5%</text>
<rect x="760" y="66" width="18" height="18" rx="4" fill="#2563EB"/>
<text x="786" y="80" font-family="Arial" font-size="14" fill="#334155">Codex gpt-5.4-mini</text>
<rect x="760" y="92" width="18" height="18" rx="4" fill="#F59E0B"/>
<text x="786" y="106" font-family="Arial" font-size="14" fill="#334155">Gemma 4</text>
</svg>
